<svg width="24" height="63" viewBox="0 0 24 63" fill="none" xmlns="http://www.w3.org/2000/svg">
<path d="M1.3462 55.4795H1.33967L1.04263 56.2825H1.63672L1.3462 55.4795ZM2.48868 57.1279V57.1802H1.81951V57.1279C1.875 57.1116 1.90438 57.079 1.90438 57.0235C1.90438 57.0006 1.89459 56.9647 1.87827 56.919L1.75749 56.5959H0.925117L0.801076 56.919C0.784755 56.9647 0.774963 57.0006 0.774963 57.0268C0.774963 57.0725 0.804341 57.1051 0.866361 57.1279V57.1802H0.259216V57.1279C0.314708 57.1116 0.366935 57.0529 0.406106 56.9484L1.07853 55.1923C1.09812 55.14 1.10791 55.0943 1.10791 55.0584C1.10791 55.0062 1.0818 54.9703 1.03284 54.9507V54.8952H1.67915V54.9507C1.62692 54.967 1.60081 54.9964 1.60081 55.0454C1.60081 55.0748 1.6106 55.1139 1.62692 55.1564L2.3222 56.919C2.34832 56.9811 2.3679 57.0235 2.38096 57.0463C2.41034 57.0888 2.44624 57.1182 2.48868 57.1279ZM3.99542 56.6122C3.99542 56.8113 3.92034 56.968 3.76692 57.0757C3.63309 57.1704 3.46335 57.2128 3.25444 57.2128C3.06838 57.2128 2.88885 57.1834 2.72237 57.1018L2.6016 57.0398C2.58854 57.0333 2.57548 57.03 2.56569 57.03C2.54611 57.03 2.52979 57.0431 2.51673 57.0692L2.48082 57.0529L2.63424 56.5926L2.67015 56.6122C2.67015 56.7036 2.74849 56.7754 2.90191 56.8244C3.01615 56.8603 3.13367 56.8799 3.25118 56.8799C3.34584 56.8799 3.43071 56.8635 3.50252 56.8342C3.59718 56.795 3.64615 56.733 3.64615 56.6514C3.64615 56.5763 3.61351 56.5273 3.55149 56.5045C3.50252 56.4882 3.42418 56.4718 3.31973 56.462C3.02921 56.4327 2.83989 56.3968 2.75828 56.3543C2.59181 56.2727 2.5102 56.116 2.5102 55.881C2.5102 55.6884 2.57548 55.535 2.70932 55.4208C2.83662 55.3163 2.99657 55.2641 3.19569 55.2641C3.3034 55.2641 3.40133 55.2771 3.4862 55.3065C3.55475 55.3294 3.66247 55.3816 3.80283 55.4599C3.83874 55.4795 3.86159 55.4893 3.87791 55.4893C3.89423 55.4893 3.91381 55.4763 3.93666 55.4534L3.96604 55.473L3.78651 55.9104L3.75387 55.8875C3.75387 55.7896 3.68205 55.7145 3.53843 55.6623C3.43397 55.6264 3.31973 55.6068 3.19895 55.6068C3.11082 55.6068 3.02921 55.6231 2.9574 55.6591C2.86926 55.7015 2.82356 55.7635 2.82356 55.8418C2.82356 55.9332 2.92476 55.9887 3.12714 56.0083C3.41765 56.0377 3.60698 56.0671 3.69185 56.103C3.89423 56.1911 3.99542 56.3609 3.99542 56.6122ZM5.8384 56.8831V56.919C5.55115 57.1182 5.2639 57.2128 4.97338 57.2128C4.69592 57.2128 4.47722 57.1247 4.31401 56.9386C4.15733 56.7591 4.07899 56.5306 4.07899 56.2531C4.07899 55.9724 4.16059 55.7407 4.3238 55.5546C4.49354 55.362 4.71551 55.2641 4.99297 55.2641C5.15944 55.2641 5.32592 55.3033 5.49239 55.3849C5.55441 55.4142 5.60011 55.4306 5.62296 55.4306C5.63602 55.4306 5.65234 55.4208 5.67519 55.4044L5.7111 55.424L5.5283 55.9006L5.49892 55.881C5.49892 55.7929 5.43364 55.7276 5.30633 55.6786C5.20841 55.6395 5.10722 55.6199 5.00603 55.6199C4.82976 55.6199 4.6894 55.6819 4.58821 55.8092C4.49354 55.9267 4.44458 56.0769 4.44458 56.2564C4.44458 56.4392 4.49354 56.5861 4.59147 56.6938C4.69592 56.8081 4.83955 56.8668 5.01908 56.8668C5.19535 56.8668 5.34224 56.8276 5.46302 56.746V56.4555H5.12354C5.07457 56.4555 5.03867 56.4914 5.02235 56.5632H4.98644V56.0671H5.02235C5.03867 56.1389 5.07457 56.1748 5.12354 56.1748H5.8384V56.2238C5.77964 56.2433 5.75027 56.289 5.75027 56.3641V56.7591C5.75027 56.8211 5.77964 56.8603 5.8384 56.8831ZM7.01831 56.449L6.77676 55.8484L6.54174 56.449H7.01831ZM7.77235 57.1345V57.1802H7.15867V57.1345C7.21417 57.1247 7.24354 57.0888 7.24354 57.0333C7.24354 57.0072 7.20437 56.8995 7.1293 56.7101H6.44055C6.36873 56.8962 6.33283 57.0039 6.33283 57.0333C6.33283 57.0888 6.35894 57.1214 6.41443 57.1345V57.1802H5.86604V57.1345C5.90195 57.1345 5.93133 57.1182 5.95418 57.0822L5.99661 56.9811L6.54827 55.597C6.56785 55.5481 6.57764 55.5024 6.57764 55.4599C6.57764 55.4142 6.55153 55.3783 6.50257 55.3522V55.3033H7.08686V55.3522C7.0379 55.3751 7.01178 55.4142 7.01178 55.4665C7.01178 55.4991 7.02484 55.5448 7.04769 55.6003L7.61567 56.9452C7.64178 57.0072 7.66136 57.0463 7.67116 57.0627C7.69727 57.1018 7.72991 57.1247 7.77235 57.1345ZM9.04223 55.8582C9.04223 55.77 9.01612 55.708 8.96715 55.6786C8.93125 55.6558 8.86923 55.646 8.77783 55.646H8.23923V56.0671H8.77783C8.86596 56.0671 8.93125 56.0573 8.96715 56.0344C9.01612 56.0051 9.04223 55.9463 9.04223 55.8582ZM9.49922 57.1345V57.1802H8.87249V57.1345C8.91819 57.1247 8.94104 57.1051 8.94104 57.0757C8.94104 57.0398 8.92798 56.9941 8.8986 56.9452L8.5983 56.4098H8.23923V57.0104C8.23923 57.0692 8.26535 57.1116 8.32084 57.1345V57.1802H7.79203V57.1345C7.84753 57.1149 7.8769 57.0725 7.8769 57.0104V55.4763C7.8769 55.4142 7.84753 55.3718 7.79203 55.3522V55.3033H8.79089C9.00306 55.3033 9.15321 55.3392 9.24788 55.4142C9.35559 55.4958 9.40782 55.6427 9.40782 55.8484C9.40782 56.1519 9.28378 56.3119 8.98674 56.3902L9.27399 56.8864C9.31642 56.9615 9.34907 57.0104 9.36539 57.0333C9.40782 57.0888 9.45352 57.1247 9.49922 57.1345ZM10.9164 56.2433C10.9164 55.8451 10.7466 55.646 10.4072 55.646H10.0252V56.8374H10.4072C10.7466 56.8374 10.9164 56.6383 10.9164 56.2433ZM11.282 56.2433C11.282 56.8668 11.0078 57.1802 10.4594 57.1802H9.57805V57.1345C9.63354 57.1149 9.66292 57.0725 9.66292 57.0104V55.4763C9.66292 55.411 9.63354 55.3685 9.57805 55.3522V55.3033H10.4594C10.7107 55.3033 10.9098 55.3783 11.0567 55.5252C11.2069 55.6721 11.282 55.9104 11.282 56.2433ZM14.3015 56.6971H14.3406V57.2814H14.3015C14.2819 57.2096 14.2492 57.1802 14.2035 57.1802H12.5421V57.1279C12.5975 57.1051 12.6269 57.0627 12.6269 57.0072V55.0715C12.6269 55.0095 12.5975 54.9703 12.5421 54.9507V54.8952H14.1709C14.2199 54.8952 14.2492 54.8593 14.2656 54.7842H14.3113V55.3783H14.2656C14.2492 55.3065 14.2199 55.2706 14.1709 55.2706H13.0219V55.8125H13.7694C13.8184 55.8125 13.8477 55.7766 13.8641 55.708H13.9098V56.2825H13.8641C13.8477 56.2107 13.8184 56.1748 13.7694 56.1748H13.0219V56.8048H14.2035C14.2492 56.8048 14.2819 56.7689 14.3015 56.6971ZM15.962 56.6122C15.962 56.8113 15.8869 56.968 15.7335 57.0757C15.5996 57.1704 15.4299 57.2128 15.221 57.2128C15.0349 57.2128 14.8554 57.1834 14.6889 57.1018L14.5681 57.0398C14.5551 57.0333 14.542 57.03 14.5322 57.03C14.5127 57.03 14.4963 57.0431 14.4833 57.0692L14.4474 57.0529L14.6008 56.5926L14.6367 56.6122C14.6367 56.7036 14.715 56.7754 14.8684 56.8244C14.9827 56.8603 15.1002 56.8799 15.2177 56.8799C15.3124 56.8799 15.3973 56.8635 15.4691 56.8342C15.5637 56.795 15.6127 56.733 15.6127 56.6514C15.6127 56.5763 15.58 56.5273 15.518 56.5045C15.4691 56.4882 15.3907 56.4718 15.2863 56.462C14.9958 56.4327 14.8064 56.3968 14.7248 56.3543C14.5583 56.2727 14.4767 56.116 14.4767 55.881C14.4767 55.6884 14.542 55.535 14.6759 55.4208C14.8032 55.3163 14.9631 55.2641 15.1622 55.2641C15.2699 55.2641 15.3679 55.2771 15.4527 55.3065C15.5213 55.3294 15.629 55.3816 15.7694 55.4599C15.8053 55.4795 15.8281 55.4893 15.8445 55.4893C15.8608 55.4893 15.8804 55.4763 15.9032 55.4534L15.9326 55.473L15.7531 55.9104L15.7204 55.8875C15.7204 55.7896 15.6486 55.7145 15.505 55.6623C15.4005 55.6264 15.2863 55.6068 15.1655 55.6068C15.0774 55.6068 14.9958 55.6231 14.9239 55.6591C14.8358 55.7015 14.7901 55.7635 14.7901 55.8418C14.7901 55.9332 14.8913 55.9887 15.0937 56.0083C15.3842 56.0377 15.5735 56.0671 15.6584 56.103C15.8608 56.1911 15.962 56.3609 15.962 56.6122ZM17.4491 55.1988H17.4851V55.7537H17.4491C17.4328 55.6819 17.4002 55.646 17.3512 55.646H16.9073V57.0104C16.9073 57.0692 16.9367 57.1116 16.9922 57.1345V57.1802H16.4634V57.1345C16.5188 57.1149 16.5482 57.0725 16.5482 57.0104V55.646H16.1076C16.0553 55.646 16.0227 55.6819 16.0064 55.7537H15.9672V55.1988H16.0064C16.0227 55.2673 16.0553 55.3033 16.1076 55.3033H17.3512C17.4002 55.3033 17.4328 55.2673 17.4491 55.1988ZM18.5673 56.449L18.3257 55.8484L18.0907 56.449H18.5673ZM19.3213 57.1345V57.1802H18.7076V57.1345C18.7631 57.1247 18.7925 57.0888 18.7925 57.0333C18.7925 57.0072 18.7533 56.8995 18.6783 56.7101H17.9895C17.9177 56.8962 17.8818 57.0039 17.8818 57.0333C17.8818 57.0888 17.9079 57.1214 17.9634 57.1345V57.1802H17.415V57.1345C17.4509 57.1345 17.4803 57.1182 17.5031 57.0822L17.5456 56.9811L18.0972 55.597C18.1168 55.5481 18.1266 55.5024 18.1266 55.4599C18.1266 55.4142 18.1005 55.3783 18.0515 55.3522V55.3033H18.6358V55.3522C18.5869 55.3751 18.5607 55.4142 18.5607 55.4665C18.5607 55.4991 18.5738 55.5448 18.5966 55.6003L19.1646 56.9452C19.1907 57.0072 19.2103 57.0463 19.2201 57.0627C19.2462 57.1018 19.2789 57.1247 19.3213 57.1345ZM20.712 55.1988H20.7479V55.7537H20.712C20.6956 55.6819 20.663 55.646 20.614 55.646H20.1701V57.0104C20.1701 57.0692 20.1995 57.1116 20.255 57.1345V57.1802H19.7262V57.1345C19.7817 57.1149 19.811 57.0725 19.811 57.0104V55.646H19.3704C19.3181 55.646 19.2855 55.6819 19.2692 55.7537H19.23V55.1988H19.2692C19.2855 55.2673 19.3181 55.3033 19.3704 55.3033H20.614C20.663 55.3033 20.6956 55.2673 20.712 55.1988ZM22.3001 56.733H22.336V57.2814H22.3001C22.2838 57.2096 22.2512 57.1802 22.1989 57.1802H20.8019V57.1345C20.8573 57.1149 20.8867 57.0725 20.8867 57.0104V55.4697C20.8867 55.411 20.8573 55.3718 20.8019 55.3522V55.3033H22.1565C22.2087 55.3033 22.2414 55.2673 22.2577 55.1988H22.2969V55.7537H22.2577C22.2414 55.6819 22.2087 55.646 22.1565 55.646H21.2491V56.054H21.8138C21.8627 56.054 21.8954 56.0181 21.915 55.9463H21.9509V56.4914H21.915C21.8954 56.4196 21.8627 56.3837 21.8138 56.3837H21.2491V56.8374H22.1989C22.2512 56.8374 22.2838 56.8015 22.3001 56.733ZM2.02842 60.0344C2.02842 59.7896 1.98599 59.6101 1.90438 59.4893C1.80646 59.3424 1.64324 59.2706 1.41149 59.2706H0.905531V60.8048H1.41149C1.82278 60.8048 2.02842 60.5469 2.02842 60.0344ZM2.43318 60.0344C2.43318 60.7983 2.1035 61.1802 1.44086 61.1802H0.425691V61.1279C0.481183 61.1051 0.510561 61.0627 0.510561 61.0072V59.0715C0.510561 59.0095 0.481183 58.9703 0.425691 58.9507V58.8952H1.44086C2.1035 58.8952 2.43318 59.2739 2.43318 60.0344ZM3.75226 59.3522V59.3033H4.24842V59.3522C4.19293 59.3718 4.16355 59.4142 4.16355 59.4763V60.4686C4.16355 61.0137 3.95138 61.2128 3.40625 61.2128C2.87419 61.2128 2.64895 61.0006 2.64895 60.4686V59.4763C2.64895 59.4142 2.61958 59.3718 2.56082 59.3522V59.3033H3.09289V59.3522C3.03413 59.3718 3.00475 59.4142 3.00475 59.4763V60.3772C3.00475 60.5437 3.03413 60.6644 3.08636 60.7362C3.15164 60.8244 3.26263 60.8668 3.42257 60.8668C3.58252 60.8668 3.69677 60.8244 3.75879 60.7362C3.81102 60.6644 3.83713 60.5437 3.83713 60.3772V59.4763C3.83713 59.411 3.80775 59.3685 3.75226 59.3522ZM5.65882 60.5926C5.65882 60.4327 5.57068 60.3511 5.39115 60.3511H4.83297V60.8374H5.39115C5.57068 60.8374 5.65882 60.7558 5.65882 60.5926ZM5.60985 59.8255C5.60985 59.7504 5.58701 59.7015 5.54457 59.6754C5.51193 59.6558 5.45644 59.646 5.37483 59.646H4.83297V60.0083H5.37483C5.53151 60.0083 5.60985 59.9463 5.60985 59.8255ZM6.02441 60.6253C6.02441 60.9778 5.81224 61.1802 5.45644 61.1802H4.38577V61.1345C4.44126 61.1149 4.47064 61.0725 4.47064 61.0104V59.4763C4.47064 59.411 4.44126 59.3685 4.38577 59.3522V59.3033H5.43685C5.79918 59.3033 5.97871 59.4632 5.97871 59.7864C5.97871 59.943 5.9069 60.0703 5.76654 60.1715C5.95913 60.289 6.02441 60.4033 6.02441 60.6253ZM7.1777 60.449L6.93615 59.8484L6.70112 60.449H7.1777ZM7.93173 61.1345V61.1802H7.31806V61.1345C7.37355 61.1247 7.40293 61.0888 7.40293 61.0333C7.40293 61.0072 7.36376 60.8995 7.28868 60.7101H6.59993C6.52812 60.8962 6.49221 61.0039 6.49221 61.0333C6.49221 61.0888 6.51833 61.1214 6.57382 61.1345V61.1802H6.02543V61.1345C6.06134 61.1345 6.09071 61.1182 6.11356 61.0822L6.156 60.9811L6.70765 59.597C6.72724 59.5481 6.73703 59.5024 6.73703 59.4599C6.73703 59.4142 6.71092 59.3783 6.66195 59.3522V59.3033H7.24625V59.3522C7.19728 59.3751 7.17117 59.4142 7.17117 59.4665C7.17117 59.4991 7.18423 59.5448 7.20708 59.6003L7.77505 60.9452C7.80116 61.0072 7.82075 61.0463 7.83054 61.0627C7.85666 61.1018 7.8893 61.1247 7.93173 61.1345ZM8.48022 61.1345V61.1802H7.95142V61.1345C8.00691 61.1149 8.03629 61.0725 8.03629 61.0104V59.4697C8.03629 59.411 8.00691 59.3718 7.95142 59.3522V59.3033H8.48022V59.3522C8.42473 59.3718 8.39862 59.4142 8.39862 59.4763V61.0104C8.39862 61.0692 8.42473 61.1116 8.48022 61.1345ZM8.67988 61.7188V61.598C8.80065 61.5458 8.89205 61.4903 8.95407 61.4283C9.01935 61.3662 9.06179 61.2879 9.07811 61.1932C9.02588 61.2063 8.98998 61.2128 8.9606 61.2128C8.89205 61.2128 8.83329 61.19 8.78433 61.1541C8.73537 61.1116 8.71252 61.0463 8.71252 60.9615C8.71252 60.8766 8.73537 60.8081 8.7876 60.7558C8.83329 60.7069 8.89531 60.684 8.96713 60.684C9.07158 60.684 9.14992 60.7264 9.20215 60.8113C9.25111 60.8864 9.27723 60.9745 9.27723 61.0725C9.27723 61.2487 9.19236 61.4087 9.02262 61.549C8.92796 61.6241 8.81371 61.6796 8.67988 61.7188ZM12.0557 58.9507V58.8952H12.591V58.9507C12.5355 58.9703 12.5094 59.0095 12.5094 59.0715V60.3511C12.5094 60.6742 12.4376 60.8995 12.2972 61.0268C12.1569 61.1541 11.9251 61.2128 11.6019 61.2128C11.2853 61.2128 11.0568 61.1541 10.9165 61.0235C10.7696 60.8897 10.6977 60.6677 10.6977 60.3511V59.0715C10.6977 59.0095 10.6684 58.9703 10.6096 58.9507V58.8952H11.1841V58.9507C11.1254 58.9703 11.096 59.0095 11.096 59.0715V60.2074C11.096 60.3609 11.109 60.4816 11.1384 60.5665C11.1809 60.6938 11.2625 60.7721 11.38 60.8048C11.4453 60.8211 11.5236 60.8309 11.6183 60.8309C11.7162 60.8309 11.7978 60.8211 11.8631 60.8048C12.0491 60.7558 12.1405 60.5632 12.1405 60.227V59.0715C12.1405 59.0095 12.1112 58.9703 12.0557 58.9507ZM13.7185 59.4795H13.7119L13.4149 60.2825H14.009L13.7185 59.4795ZM14.861 61.1279V61.1802H14.1918V61.1279C14.2473 61.1116 14.2767 61.079 14.2767 61.0235C14.2767 61.0006 14.2669 60.9647 14.2505 60.919L14.1298 60.5959H13.2974L13.1734 60.919C13.157 60.9647 13.1472 61.0006 13.1472 61.0268C13.1472 61.0725 13.1766 61.1051 13.2386 61.1279V61.1802H12.6315V61.1279C12.687 61.1116 12.7392 61.0529 12.7784 60.9484L13.4508 59.1923C13.4704 59.14 13.4802 59.0943 13.4802 59.0584C13.4802 59.0062 13.4541 58.9703 13.4051 58.9507V58.8952H14.0514V58.9507C13.9992 58.967 13.9731 58.9964 13.9731 59.0454C13.9731 59.0748 13.9829 59.1139 13.9992 59.1564L14.6945 60.919C14.7206 60.9811 14.7402 61.0235 14.7532 61.0463C14.7826 61.0888 14.8185 61.1182 14.861 61.1279ZM16.6909 60.6971H16.73V61.2814H16.6909C16.6713 61.2096 16.6386 61.1802 16.5929 61.1802H14.9314V61.1279C14.9869 61.1051 15.0163 61.0627 15.0163 61.0072V59.0715C15.0163 59.0095 14.9869 58.9703 14.9314 58.9507V58.8952H16.5603C16.6092 58.8952 16.6386 58.8593 16.6549 58.7842H16.7006V59.3783H16.6549C16.6386 59.3065 16.6092 59.2706 16.5603 59.2706H15.4113V59.8125H16.1588C16.2077 59.8125 16.2371 59.7766 16.2534 59.708H16.2991V60.2825H16.2534C16.2371 60.2107 16.2077 60.1748 16.1588 60.1748H15.4113V60.8048H16.5929C16.6386 60.8048 16.6713 60.7689 16.6909 60.6971Z" fill="#D2A85B"/>
<path fill-rule="evenodd" clip-rule="evenodd" d="M10.6787 0.431748C10.5839 0.678668 10.5065 2.31431 10.5065 4.06659V7.25272L9.35188 7.76217C8.15361 8.29064 7.46933 9.27265 7.76393 10.0401C8.01568 10.696 8.67555 10.5796 9.19437 9.78778C10.0518 8.47938 13.0659 8.59092 13.4962 9.947C13.7056 10.6066 14.6374 10.6548 14.8818 10.0182C15.1358 9.35581 14.3351 8.27049 13.1888 7.72386L12.2094 7.25698V4.16877C12.2094 2.47041 12.0771 0.833632 11.9156 0.53165C11.5603 -0.132198 10.9151 -0.184419 10.6787 0.431748ZM8.59069 11.0485C7.93876 11.4458 7.66828 11.8227 7.66828 12.3336C7.66828 13.3764 8.40848 13.5251 9.22332 12.6458C9.79237 12.0319 10.1625 11.9031 11.3579 11.9031C12.5533 11.9031 12.9234 12.0319 13.4925 12.6458C13.9035 13.0891 14.3556 13.3216 14.6141 13.2225C15.3186 12.9521 15.1111 12.0072 14.1742 11.2188C13.4252 10.5887 13.0316 10.4843 11.407 10.4851C10.02 10.4857 9.26617 10.6367 8.59069 11.0485ZM8.65171 13.8762C7.83772 14.206 7.29166 14.9416 7.48579 15.4471C7.69298 15.9875 8.49419 15.9852 9.21253 15.4417C9.54517 15.1902 10.3955 15.0251 11.3579 15.0251C12.3203 15.0251 13.1706 15.1902 13.5033 15.4417C14.376 16.1019 15.0475 15.9855 15.0475 15.1743C15.0475 14.1191 13.7987 13.6023 11.3011 13.6238C10.1616 13.6338 8.9693 13.7473 8.65171 13.8762ZM7.68219 16.9783C6.09679 17.5445 5.39775 18.17 5.39775 19.0223C5.39775 19.8383 6.19811 19.8803 6.91957 19.1021C8.41784 17.4863 14.2713 17.5641 15.8062 19.2204C16.4326 19.8959 16.5211 19.9172 16.9454 19.4926C17.3697 19.0683 17.3674 18.9741 16.9142 18.2821C16.1939 17.1829 14.6703 16.6649 11.7836 16.5381C9.76285 16.4492 8.90601 16.5412 7.68219 16.9783ZM7.31096 19.9717C5.87711 20.4834 5.39775 20.9239 5.39775 21.7294C5.39775 22.2519 5.55101 22.4043 6.07692 22.4043C6.45042 22.4043 6.82478 22.2252 6.90879 22.0064C7.09355 21.5253 9.4464 20.9852 11.3579 20.9852C13.2694 20.9852 15.6223 21.5253 15.807 22.0064C16.0128 22.5428 17.0104 22.513 17.221 21.9641C17.4781 21.294 16.2921 20.2286 14.8985 19.8778C13.2019 19.4506 8.61226 19.5074 7.31096 19.9717ZM8.3046 22.7049C6.62043 23.0369 5.56435 23.5929 5.44543 24.2105C5.25555 25.1965 5.84476 25.3514 7.23177 24.6802C8.39855 24.1151 8.88671 24.0575 11.7357 24.1481C14.2284 24.2273 15.1049 24.3635 15.7219 24.7676C16.5623 25.3182 17.3181 25.232 17.3181 24.5857C17.3181 22.9867 12.2443 21.928 8.3046 22.7049ZM7.35552 25.8308C4.78385 26.1036 1.81371 27.0456 0.927628 27.8695C0.243062 28.5061 0.0787318 29.6201 0.619971 29.9544C0.811547 30.073 1.19981 29.8463 1.54323 29.4157C2.78039 27.8641 6.96385 27.0748 12.71 27.3089C17.374 27.4988 19.6933 28.0454 20.7994 29.2156C21.6457 30.1113 22.4268 30.0906 22.4268 29.1728C22.4268 27.6887 19.3567 26.3196 14.9056 25.8183C12.0376 25.4956 10.4897 25.4982 7.35552 25.8308ZM8.37782 29.1188C6.13085 29.2999 3.06165 29.8397 2.175 30.2104C0.954591 30.7204 0.223478 31.5841 0.337289 32.3825C0.455641 33.2155 1.31447 33.4147 1.55259 32.6643C1.99194 31.2801 6.44191 30.4999 12.6981 30.7102C17.4866 30.8711 19.9218 31.3675 20.7693 32.3561C21.0284 32.6583 21.5075 32.9055 21.8336 32.9055C22.609 32.9055 22.6399 31.7674 21.883 31.0823C20.3146 29.6629 13.6526 28.6943 8.37782 29.1188ZM4.83011 32.7486C1.67492 33.4144 0.28904 34.1634 0.28904 35.2033C0.28904 36.0323 0.75677 36.0783 1.82364 35.3543C3.08322 34.4994 5.42897 34.0553 9.79691 33.8447C13.1919 33.6812 18.3583 34.0919 19.8361 34.6433C20.2465 34.7963 20.7891 35.1903 21.0423 35.5186C21.5779 36.214 22.4268 36.0394 22.4268 35.2345C22.4268 34.4157 21.2276 33.4837 19.5528 33.0003C17.4058 32.3805 7.38617 32.2093 4.83011 32.7486ZM6.10729 35.631C1.83982 36.2126 0.28904 36.8074 0.28904 37.863C0.28904 38.8302 0.718739 38.9809 1.63121 38.3332C2.83204 37.4807 6.17767 37.0407 11.3579 37.0538C16.3852 37.0669 19.1714 37.4452 20.6691 38.3185C21.8654 39.0158 22.4268 39.013 22.4268 38.3091C22.4268 36.5302 19.1938 35.6796 12.0674 35.5836C9.25766 35.5459 6.57559 35.5674 6.10729 35.631ZM6.81683 38.7488C1.12687 39.4257 0.28904 39.6618 0.28904 40.5876C0.28904 41.273 1.00227 41.6042 1.53187 41.1649C2.72249 40.1766 14.5605 39.8451 18.44 40.6915C19.6036 40.9452 20.7801 41.3562 21.0548 41.6045C21.6729 42.1642 22.4268 41.9153 22.4268 41.1516C22.4268 39.7208 19.1033 38.9173 12.4932 38.7496C9.91753 38.684 7.36318 38.6838 6.81683 38.7488ZM2.13385 42.137C1.97775 42.1835 1.49044 42.3013 1.05109 42.3986C0.42811 42.5366 0.271727 42.7137 0.341546 43.2038C0.413636 43.7107 0.595846 43.8203 1.2824 43.7695C1.7507 43.7351 4.94364 43.6284 8.37782 43.5325C15.3103 43.3389 19.9973 43.7695 21.0179 44.6933C21.6678 45.2814 22.4268 45.0552 22.4268 44.2735C22.4268 42.6512 18.4349 41.9769 9.08737 42.0206C5.41903 42.0379 2.28995 42.0901 2.13385 42.137ZM0.371347 45.5885C-0.00641349 46.5727 0.737187 46.6678 10.1656 46.8421C17.2426 46.9729 19.72 47.112 20.5973 47.4284C21.9536 47.9175 22.4268 47.8215 22.4268 47.0583C22.4268 45.9537 20.7784 45.6183 14.7637 45.4985C11.7198 45.438 7.27179 45.341 4.87921 45.2831C1.27559 45.1959 0.501903 45.2485 0.371347 45.5885ZM0.643811 48.136C-0.0745295 48.4255 0.269457 49.317 1.21145 49.607C1.71891 49.7634 6.02924 49.9567 10.7903 50.0364C16.2137 50.1275 19.9039 50.3092 20.6705 50.5229C21.6023 50.7826 21.9735 50.7852 22.2253 50.5334C22.6947 50.064 22.1597 49.3164 21.1277 48.9997C20.6716 48.8594 16.1473 48.6531 11.0741 48.541C6.00086 48.4289 1.65846 48.2597 1.42431 48.165C1.19016 48.0704 0.839077 48.0571 0.643811 48.136ZM0.28904 51.5903C0.28904 52.71 1.23926 52.9112 6.53302 52.9129C11.3111 52.9146 11.4998 52.8931 11.4998 52.347C11.4998 51.8106 11.2503 51.7694 6.95874 51.5983C4.46115 51.499 1.93887 51.3224 1.35335 51.2066C0.394904 51.0165 0.28904 51.0548 0.28904 51.5903Z" fill="url(#paint0_linear_13_2)"/>
<defs>
<linearGradient id="paint0_linear_13_2" x1="11.3463" y1="0" x2="11.3463" y2="107.406" gradientUnits="userSpaceOnUse">
<stop stop-color="#BE8D34"/>
<stop offset="1" stop-color="#FEE3B2"/>
</linearGradient>
</defs>
</svg>
