<svg width="23" height="53" viewBox="0 0 23 53" fill="none" xmlns="http://www.w3.org/2000/svg">
<path fill-rule="evenodd" clip-rule="evenodd" d="M10.4366 0.432458C10.3417 0.679784 10.2641 2.31811 10.2641 4.07328V7.26465L9.10762 7.77494C7.90737 8.30427 7.22197 9.28789 7.51705 10.0566C7.76921 10.7136 8.43017 10.597 8.94984 9.80387C9.80866 8.49332 12.8278 8.60505 13.2587 9.96335C13.4685 10.624 14.4018 10.6724 14.6466 10.0347C14.901 9.37119 14.0991 8.28409 12.9509 7.73656L11.9698 7.26891V4.17562C11.9698 2.47447 11.8373 0.835002 11.6756 0.532525C11.3196 -0.132415 10.6735 -0.184722 10.4366 0.432458ZM8.34517 11.0667C7.69217 11.4647 7.42125 11.8422 7.42125 12.3539C7.42125 13.3984 8.16266 13.5473 8.97884 12.6666C9.54883 12.0517 9.91953 11.9226 11.1169 11.9226C12.3143 11.9226 12.685 12.0517 13.255 12.6666C13.6667 13.1107 14.1195 13.3435 14.3785 13.2443C15.0841 12.9733 14.8763 12.027 13.9379 11.2372C13.1877 10.6061 12.7934 10.5015 11.1661 10.5024C9.77682 10.5029 9.02177 10.6542 8.34517 11.0667ZM8.40629 13.899C7.59097 14.2293 7.044 14.9662 7.23845 15.4725C7.44598 16.0138 8.24852 16.0115 8.96804 15.4671C9.30122 15.2152 10.1529 15.0498 11.1169 15.0498C12.0809 15.0498 12.9327 15.2152 13.2658 15.4671C14.14 16.1283 14.8126 16.0118 14.8126 15.1993C14.8126 14.1423 13.5618 13.6246 11.0601 13.6462C9.91868 13.6562 8.72441 13.7699 8.40629 13.899ZM7.43518 17.0062C5.84717 17.5733 5.14698 18.1999 5.14698 19.0536C5.14698 19.8709 5.94866 19.913 6.67131 19.1335C8.17204 17.5151 14.0351 17.593 15.5725 19.252C16.1999 19.9286 16.2886 19.95 16.7136 19.5247C17.1386 19.0997 17.1364 19.0053 16.6824 18.3122C15.9608 17.2112 14.4348 16.6923 11.5434 16.5653C9.51926 16.4763 8.66101 16.5684 7.43518 17.0062ZM7.06334 20.0045C5.62713 20.5171 5.14698 20.9583 5.14698 21.7651C5.14698 22.2885 5.30049 22.4411 5.82727 22.4411C6.20139 22.4411 6.57636 22.2617 6.66051 22.0426C6.84557 21.5607 9.20229 21.0197 11.1169 21.0197C13.0316 21.0197 15.3883 21.5607 15.5734 22.0426C15.7795 22.5799 16.7787 22.55 16.9897 22.0002C17.2472 21.329 16.0592 20.2618 14.6634 19.9104C12.9639 19.4826 8.36678 19.5394 7.06334 20.0045ZM8.05861 22.7422C6.37167 23.0748 5.31385 23.6317 5.19474 24.2503C5.00455 25.2379 5.59473 25.3931 6.98402 24.7208C8.15271 24.1548 8.64168 24.0971 11.4953 24.1878C13.9922 24.2671 14.87 24.4035 15.4881 24.8084C16.3298 25.3599 17.0869 25.2735 17.0869 24.6261C17.0869 23.0245 12.0048 21.9641 8.05861 22.7422ZM7.10797 25.8733C4.53207 26.1465 1.55704 27.09 0.669511 27.9153C-0.0161812 28.5529 -0.180781 29.6688 0.361348 30.0036C0.553239 30.1225 0.942139 29.8953 1.28612 29.4641C2.52532 27.9099 6.71566 27.1193 12.4713 27.3538C17.1429 27.544 19.4661 28.0916 20.5739 29.2637C21.4217 30.1609 22.204 30.1401 22.204 29.2207C22.204 27.7342 19.1289 26.3628 14.6705 25.8608C11.7978 25.5375 10.2473 25.5401 7.10797 25.8733ZM8.13196 29.1667C5.88128 29.3481 2.80704 29.8888 1.91894 30.2601C0.696518 30.7709 -0.0357967 31.636 0.078201 32.4357C0.196747 33.2701 1.05699 33.4696 1.2955 32.718C1.73557 31.3315 6.19286 30.55 12.4593 30.7607C17.2558 30.9219 19.6949 31.4191 20.5438 32.4093C20.8033 32.712 21.2832 32.9596 21.6098 32.9596C22.3865 32.9596 22.4175 31.8197 21.6593 31.1334C20.0884 29.7117 13.4154 28.7414 8.13196 29.1667ZM4.57841 32.8024C1.41803 33.4694 0.0298728 34.2196 0.0298728 35.2612C0.0298728 36.0916 0.498372 36.1376 1.56699 35.4124C2.82865 34.5562 5.17825 34.1113 9.55338 33.9003C12.954 33.7366 18.1288 34.1479 19.6091 34.7003C20.0201 34.8535 20.5637 35.2481 20.8173 35.577C21.3537 36.2735 22.204 36.0987 22.204 35.2925C22.204 34.4723 21.0029 33.5387 19.3253 33.0546C17.1747 32.4337 7.13867 32.2623 4.57841 32.8024ZM5.85769 35.6896C1.5832 36.2721 0.0298728 36.868 0.0298728 37.9252C0.0298728 38.8941 0.460278 39.045 1.37425 38.3963C2.57705 37.5423 5.92819 37.1016 11.1169 37.1147C16.1525 37.1278 18.9433 37.5068 20.4434 38.3815C21.6417 39.08 22.204 39.0771 22.204 38.3721C22.204 36.5902 18.9657 35.7382 11.8276 35.6421C9.01324 35.6043 6.32676 35.6259 5.85769 35.6896ZM6.5684 38.8125C0.869078 39.4905 0.0298728 39.727 0.0298728 40.6543C0.0298728 41.3409 0.744278 41.6726 1.27475 41.2326C2.46732 40.2427 14.3248 39.9107 18.2107 40.7584C19.3762 41.0125 20.5546 41.4242 20.8298 41.6729C21.4489 42.2335 22.204 41.9842 22.204 41.2192C22.204 39.7861 18.875 38.9813 12.2541 38.8133C9.6742 38.7477 7.11564 38.7474 6.5684 38.8125ZM1.87772 42.2062C1.72136 42.2529 1.23325 42.3708 0.793174 42.4684C0.169172 42.6065 0.0125316 42.7839 0.0824654 43.2749C0.154673 43.7826 0.337183 43.8923 1.02487 43.8414C1.49393 43.807 4.69213 43.7002 8.13196 43.6041C15.0759 43.4102 19.7705 43.8414 20.7928 44.7668C21.4438 45.3558 22.204 45.1292 22.204 44.3463C22.204 42.7214 18.2056 42.0459 8.84267 42.0897C5.1683 42.107 2.03407 42.1593 1.87772 42.2062ZM0.112315 45.6634C-0.266067 46.6493 0.478756 46.7445 9.92266 46.9191C17.0113 47.0502 19.4928 47.1895 20.3715 47.5064C21.7301 47.9963 22.204 47.9002 22.204 47.1357C22.204 46.0293 20.5529 45.6933 14.5283 45.5733C11.4794 45.5127 7.02411 45.4155 4.62759 45.3575C1.01804 45.2703 0.243086 45.3228 0.112315 45.6634ZM0.385227 48.2151C-0.334295 48.5051 0.0102572 49.398 0.953795 49.6886C1.46209 49.8452 5.77951 50.0388 10.5484 50.1187C15.9807 50.21 19.677 50.3919 20.4449 50.606C21.3782 50.8661 21.75 50.8687 22.0022 50.6165C22.4724 50.1463 21.9365 49.3975 20.9028 49.0802C20.446 48.9398 15.9142 48.7331 10.8327 48.6208C5.75108 48.5085 1.40154 48.3391 1.16701 48.2441C0.932474 48.1495 0.580815 48.1361 0.385227 48.2151ZM0.0298728 51.6752C0.0298728 52.7967 0.981655 52.9982 6.28411 52.9999C11.07 53.0016 11.2591 52.98 11.2591 52.4331C11.2591 51.8958 11.0092 51.8545 6.71054 51.6831C4.20884 51.5836 1.68241 51.4068 1.09594 51.2908C0.135911 51.1003 0.0298728 51.1387 0.0298728 51.6752Z" fill="url(#paint0_linear_2_530)"/>
<defs>
<linearGradient id="paint0_linear_2_530" x1="11.1053" y1="0" x2="11.1053" y2="107.582" gradientUnits="userSpaceOnUse">
<stop stop-color="#BE8D34"/>
<stop offset="1" stop-color="#FEE3B2"/>
</linearGradient>
</defs>
</svg>
