<svg width="63" height="150" viewBox="0 0 63 150" fill="none" xmlns="http://www.w3.org/2000/svg">
<path fill-rule="evenodd" clip-rule="evenodd" d="M29.5377 1.22394C29.2689 1.92392 29.0493 6.56069 29.0493 11.5281V20.5603L25.7763 22.0045C22.3794 23.5027 20.4395 26.2865 21.2747 28.4621C21.9883 30.3214 23.859 29.9916 25.3297 27.7468C27.7604 24.0377 36.305 24.3539 37.5247 28.1982C38.1185 30.068 40.7599 30.2048 41.4527 28.4001C42.1727 26.5222 39.903 23.4455 36.6534 21.8959L33.8768 20.5724V11.8178C33.8768 7.00321 33.5018 2.36321 33.044 1.50715C32.0367 -0.374759 30.2079 -0.522799 29.5377 1.22394ZM23.6184 31.3207C21.7703 32.4471 21.0035 33.5156 21.0035 34.9638C21.0035 37.9199 23.1019 38.3415 25.4118 35.8489C27.025 34.1086 28.0742 33.7433 31.463 33.7433C34.8519 33.7433 35.9011 34.1086 37.5142 35.8489C38.6793 37.1056 39.961 37.7646 40.6939 37.4838C42.6909 36.717 42.1027 34.0386 39.4468 31.8035C37.3236 30.0173 36.2076 29.7212 31.6022 29.7236C27.6703 29.7253 25.5333 30.1533 23.6184 31.3207ZM23.7914 39.3367C21.4839 40.2716 19.9359 42.3571 20.4862 43.7901C21.0735 45.322 23.3449 45.3155 25.3812 43.7748C26.3242 43.0619 28.7347 42.5937 31.463 42.5937C34.1913 42.5937 36.6019 43.0619 37.5448 43.7748C40.0189 45.6462 41.9225 45.3163 41.9225 43.0169C41.9225 40.0254 38.3824 38.5603 31.3021 38.6215C28.0717 38.6496 24.6917 38.9715 23.7914 39.3367ZM21.043 48.1307C16.5486 49.7359 14.5669 51.5092 14.5669 53.9253C14.5669 56.2385 16.8358 56.3575 18.8811 54.1514C23.1284 49.5709 39.722 49.7914 44.0732 54.4869C45.8489 56.4018 46.0999 56.4621 47.3027 55.2585C48.5056 54.0556 48.4991 53.7885 47.2142 51.827C45.1722 48.7108 40.8532 47.2425 32.6699 46.8829C26.9413 46.631 24.5123 46.8917 21.043 48.1307ZM19.9906 56.6166C15.9259 58.0673 14.5669 59.316 14.5669 61.5994C14.5669 63.0806 15.0014 63.5126 16.4923 63.5126C17.5511 63.5126 18.6123 63.005 18.8505 62.3846C19.3743 61.0209 26.0442 59.4898 31.463 59.4898C36.8819 59.4898 43.5518 61.0209 44.0756 62.3846C44.6589 63.9053 47.487 63.8208 48.084 62.2647C48.8129 60.3651 45.4506 57.3448 41.5001 56.3503C36.6904 55.1394 23.6796 55.3003 19.9906 56.6166ZM22.8074 64.3647C18.033 65.306 15.0392 66.8822 14.7021 68.633C14.1638 71.4281 15.8341 71.8674 19.7661 69.9645C23.0737 68.3626 24.4576 68.1993 32.5339 68.456C39.6005 68.6804 42.085 69.0666 43.8342 70.2123C46.2165 71.7732 48.3591 71.5286 48.3591 69.6966C48.3591 65.1636 33.9757 62.1626 22.8074 64.3647ZM20.1169 73.2263C12.8266 73.9995 4.40673 76.6699 1.89484 79.0056C-0.0457958 80.8102 -0.511645 83.9682 1.02268 84.916C1.56577 85.2523 2.66643 84.6094 3.63997 83.3889C7.14712 78.9903 19.0066 76.7528 35.296 77.4165C48.5176 77.9548 55.0926 79.5044 58.2281 82.8217C60.6273 85.3609 62.8415 85.3022 62.8415 82.7002C62.8415 78.4931 54.1384 74.6118 41.5202 73.1909C33.39 72.2761 29.0018 72.2833 20.1169 73.2263ZM23.015 82.5473C16.6451 83.0606 7.94445 84.5909 5.43096 85.6417C1.97128 87.0875 -0.101312 89.5359 0.221324 91.7991C0.556832 94.1606 2.99148 94.7254 3.66652 92.5981C4.912 88.6742 17.527 86.4624 35.2622 87.0586C48.8371 87.5148 55.7403 88.922 58.1428 91.7243C58.8774 92.5812 60.2355 93.282 61.16 93.282C63.3581 93.282 63.4458 90.0556 61.2999 88.1134C56.8539 84.0897 37.968 81.3437 23.015 82.5473ZM12.9578 92.837C4.01329 94.7246 0.0845456 96.8478 0.0845456 99.7958C0.0845456 102.146 1.41049 102.276 4.43489 100.224C8.0056 97.8005 14.6554 96.5413 27.0379 95.9443C36.6622 95.4809 51.3079 96.6451 55.4973 98.2084C56.6608 98.6421 58.1991 99.7588 58.9168 100.69C60.435 102.661 62.8415 102.166 62.8415 99.8843C62.8415 97.5631 59.4422 94.9209 54.6944 93.5507C48.6077 91.7935 20.2038 91.3083 12.9578 92.837ZM16.5784 101.008C4.48075 102.657 0.0845456 104.343 0.0845456 107.336C0.0845456 110.078 1.30267 110.505 3.88939 108.669C7.29355 106.252 16.7779 105.005 31.463 105.042C45.7145 105.079 53.613 106.151 57.8588 108.627C61.2501 110.604 62.8415 110.596 62.8415 108.6C62.8415 103.557 53.6766 101.146 33.4745 100.874C25.5092 100.767 17.9059 100.828 16.5784 101.008ZM18.5898 109.847C2.45966 111.766 0.0845456 112.435 0.0845456 115.059C0.0845456 117.003 2.10645 117.941 3.60779 116.696C6.98298 113.894 40.5419 112.955 51.5396 115.354C54.8384 116.073 58.1734 117.238 58.9522 117.942C60.7046 119.529 62.8415 118.823 62.8415 116.658C62.8415 112.602 53.4199 110.325 34.6813 109.849C27.3798 109.663 20.1386 109.662 18.5898 109.847ZM5.31429 119.452C4.87178 119.584 3.49032 119.917 2.24483 120.193C0.478788 120.584 0.0354668 121.087 0.233393 122.476C0.437755 123.913 0.954293 124.224 2.90056 124.08C4.22811 123.982 13.2796 123.68 23.015 123.408C42.6676 122.859 55.9543 124.08 58.8476 126.698C60.6901 128.366 62.8415 127.724 62.8415 125.508C62.8415 120.91 51.5251 118.998 25.0264 119.122C14.6273 119.171 5.75681 119.319 5.31429 119.452ZM0.317873 129.236C-0.753019 132.026 1.35497 132.296 28.083 132.79C48.1451 133.161 55.1683 133.555 57.6552 134.452C61.5003 135.838 62.8415 135.566 62.8415 133.403C62.8415 130.272 58.1685 129.321 41.1179 128.981C32.4889 128.81 19.8795 128.534 13.097 128.37C2.88125 128.123 0.687978 128.272 0.317873 129.236ZM1.09027 136.458C-0.946117 137.279 0.0290298 139.806 2.69942 140.628C4.138 141.071 16.3571 141.619 29.8539 141.845C45.2285 142.104 55.6896 142.619 57.8628 143.224C60.5042 143.961 61.5566 143.968 62.2703 143.254C63.601 141.923 62.0844 139.804 59.159 138.906C57.866 138.509 45.0403 137.924 30.6585 137.606C16.2766 137.288 3.96663 136.809 3.30285 136.54C2.63908 136.272 1.64381 136.234 1.09027 136.458ZM0.0845456 146.25C0.0845456 149.425 2.77827 149.995 17.7852 150C31.3303 150.005 31.8653 149.943 31.8653 148.395C31.8653 146.875 31.1581 146.758 18.9921 146.273C11.9118 145.991 4.76155 145.491 3.10171 145.163C0.384653 144.624 0.0845456 144.732 0.0845456 146.25Z" fill="#989595"/>
</svg>
