<svg width="65" height="177" viewBox="0 0 65 177" fill="none" xmlns="http://www.w3.org/2000/svg">
<path d="M3.64796 158.956H3.6293L2.78053 161.25H4.47808L3.64796 158.956ZM6.91249 163.666V163.815H5.00041V163.666C5.15897 163.62 5.24291 163.526 5.24291 163.368C5.24291 163.302 5.21493 163.2 5.1683 163.069L4.82319 162.146H2.44475L2.09031 163.069C2.04368 163.2 2.01569 163.302 2.01569 163.377C2.01569 163.508 2.09964 163.601 2.27686 163.666V163.815H0.541992V163.666C0.700555 163.62 0.849791 163.452 0.961717 163.153L2.88313 158.135C2.93909 157.986 2.96707 157.855 2.96707 157.753C2.96707 157.603 2.89245 157.501 2.75255 157.445V157.286H4.59934V157.445C4.4501 157.492 4.37548 157.576 4.37548 157.715C4.37548 157.799 4.40346 157.911 4.4501 158.033L6.4368 163.069C6.51142 163.246 6.56738 163.368 6.60469 163.433C6.68864 163.554 6.79123 163.638 6.91249 163.666ZM11.2179 162.192C11.2179 162.761 11.0034 163.209 10.565 163.517C10.1826 163.787 9.69754 163.909 9.1006 163.909C8.56895 163.909 8.05595 163.825 7.58026 163.592L7.23515 163.414C7.19784 163.396 7.16053 163.386 7.13255 163.386C7.07659 163.386 7.02995 163.424 6.99264 163.498L6.89004 163.452L7.32842 162.137L7.43102 162.192C7.43102 162.454 7.65488 162.659 8.09326 162.799C8.41971 162.901 8.75549 162.957 9.09127 162.957C9.36176 162.957 9.60427 162.911 9.80947 162.827C10.08 162.715 10.2199 162.538 10.2199 162.304C10.2199 162.09 10.1266 161.95 9.94938 161.885C9.80947 161.838 9.58561 161.791 9.28714 161.763C8.45702 161.679 7.91604 161.577 7.68286 161.456C7.20717 161.222 6.97399 160.775 6.97399 160.103C6.97399 159.553 7.16053 159.115 7.54295 158.788C7.90671 158.49 8.36375 158.34 8.93271 158.34C9.24051 158.34 9.52032 158.378 9.76283 158.462C9.9587 158.527 10.2665 158.676 10.6676 158.9C10.7702 158.956 10.8355 158.984 10.8821 158.984C10.9287 158.984 10.9847 158.947 11.05 158.881L11.1339 158.937L10.6209 160.187L10.5277 160.122C10.5277 159.842 10.3225 159.628 9.91207 159.478C9.6136 159.376 9.28714 159.32 8.94204 159.32C8.6902 159.32 8.45702 159.366 8.25182 159.469C7.99999 159.59 7.8694 159.767 7.8694 159.991C7.8694 160.252 8.15855 160.411 8.73684 160.467C9.56696 160.551 10.1079 160.635 10.3504 160.737C10.9287 160.989 11.2179 161.474 11.2179 162.192ZM16.484 162.967V163.069C15.6632 163.638 14.8425 163.909 14.0123 163.909C13.2195 163.909 12.5946 163.657 12.1282 163.125C11.6805 162.612 11.4567 161.959 11.4567 161.166C11.4567 160.364 11.6899 159.702 12.1562 159.17C12.6412 158.62 13.2755 158.34 14.0683 158.34C14.544 158.34 15.0197 158.452 15.4954 158.685C15.6726 158.769 15.8032 158.816 15.8684 158.816C15.9058 158.816 15.9524 158.788 16.0177 158.741L16.1203 158.797L15.598 160.159L15.514 160.103C15.514 159.851 15.3275 159.665 14.9637 159.525C14.6839 159.413 14.3947 159.357 14.1056 159.357C13.6019 159.357 13.2009 159.534 12.9117 159.898C12.6412 160.234 12.5013 160.663 12.5013 161.176C12.5013 161.698 12.6412 162.118 12.921 162.426C13.2195 162.752 13.6299 162.92 14.1429 162.92C14.6466 162.92 15.0663 162.808 15.4114 162.575V161.745H14.4414C14.3015 161.745 14.1989 161.847 14.1522 162.053H14.0496V160.635H14.1522C14.1989 160.84 14.3015 160.943 14.4414 160.943H16.484V161.083C16.3162 161.139 16.2322 161.269 16.2322 161.484V162.612C16.2322 162.789 16.3162 162.901 16.484 162.967ZM19.8555 161.726L19.1653 160.01L18.4938 161.726H19.8555ZM22.0101 163.685V163.815H20.2566V163.685C20.4152 163.657 20.4991 163.554 20.4991 163.396C20.4991 163.321 20.3872 163.013 20.1727 162.472H18.2046C17.9994 163.004 17.8968 163.312 17.8968 163.396C17.8968 163.554 17.9714 163.648 18.13 163.685V163.815H16.563V163.685C16.6656 163.685 16.7496 163.638 16.8149 163.536L16.9361 163.246L18.5124 159.292C18.5684 159.152 18.5964 159.021 18.5964 158.9C18.5964 158.769 18.5218 158.667 18.3818 158.592V158.452H20.0514V158.592C19.9115 158.657 19.8369 158.769 19.8369 158.919C19.8369 159.012 19.8742 159.142 19.9395 159.301L21.5624 163.144C21.637 163.321 21.693 163.433 21.721 163.48C21.7956 163.592 21.8889 163.657 22.0101 163.685ZM25.6387 160.038C25.6387 159.786 25.5641 159.609 25.4242 159.525C25.3216 159.46 25.1444 159.432 24.8832 159.432H23.3442V160.635H24.8832C25.135 160.635 25.3216 160.607 25.4242 160.542C25.5641 160.458 25.6387 160.29 25.6387 160.038ZM26.9445 163.685V163.815H25.1537V163.685C25.2843 163.657 25.3496 163.601 25.3496 163.517C25.3496 163.414 25.3123 163.284 25.2283 163.144L24.3702 161.614H23.3442V163.33C23.3442 163.498 23.4188 163.62 23.5774 163.685V163.815H22.0664V163.685C22.225 163.629 22.3089 163.508 22.3089 163.33V158.947C22.3089 158.769 22.225 158.648 22.0664 158.592V158.452H24.9205C25.5268 158.452 25.9558 158.555 26.2263 158.769C26.5341 159.003 26.6834 159.422 26.6834 160.01C26.6834 160.877 26.3289 161.334 25.4802 161.558L26.301 162.976C26.4222 163.191 26.5155 163.33 26.5621 163.396C26.6834 163.554 26.814 163.657 26.9445 163.685ZM30.9939 161.139C30.9939 160.001 30.5089 159.432 29.5389 159.432H28.4476V162.836H29.5389C30.5089 162.836 30.9939 162.267 30.9939 161.139ZM32.0386 161.139C32.0386 162.92 31.2551 163.815 29.6881 163.815H27.1698V163.685C27.3283 163.629 27.4123 163.508 27.4123 163.33V158.947C27.4123 158.76 27.3283 158.639 27.1698 158.592V158.452H29.6881C30.4063 158.452 30.9753 158.667 31.395 159.087C31.8241 159.506 32.0386 160.187 32.0386 161.139ZM40.6666 162.435H40.7785V164.105H40.6666C40.6106 163.899 40.5173 163.815 40.3867 163.815H35.6392V163.666C35.7977 163.601 35.8817 163.48 35.8817 163.321V157.79C35.8817 157.613 35.7977 157.501 35.6392 157.445V157.286H40.2935C40.4334 157.286 40.5173 157.184 40.564 156.969H40.6945V158.667H40.564C40.5173 158.462 40.4334 158.359 40.2935 158.359H37.0103V159.907H39.1462C39.2861 159.907 39.3701 159.805 39.4167 159.609H39.5473V161.25H39.4167C39.3701 161.045 39.2861 160.943 39.1462 160.943H37.0103V162.743H40.3867C40.5173 162.743 40.6106 162.64 40.6666 162.435ZM45.4113 162.192C45.4113 162.761 45.1968 163.209 44.7584 163.517C44.376 163.787 43.8909 163.909 43.294 163.909C42.7623 163.909 42.2493 163.825 41.7737 163.592L41.4286 163.414C41.3912 163.396 41.3539 163.386 41.326 163.386C41.27 163.386 41.2234 163.424 41.186 163.498L41.0834 163.452L41.5218 162.137L41.6244 162.192C41.6244 162.454 41.8483 162.659 42.2867 162.799C42.6131 162.901 42.9489 162.957 43.2847 162.957C43.5552 162.957 43.7977 162.911 44.0029 162.827C44.2734 162.715 44.4133 162.538 44.4133 162.304C44.4133 162.09 44.32 161.95 44.1428 161.885C44.0029 161.838 43.779 161.791 43.4805 161.763C42.6504 161.679 42.1094 161.577 41.8763 161.456C41.4006 161.222 41.1674 160.775 41.1674 160.103C41.1674 159.553 41.3539 159.115 41.7363 158.788C42.1001 158.49 42.5571 158.34 43.1261 158.34C43.4339 158.34 43.7137 158.378 43.9562 158.462C44.1521 158.527 44.4599 158.676 44.861 158.9C44.9636 158.956 45.0289 158.984 45.0755 158.984C45.1221 158.984 45.1781 158.947 45.2434 158.881L45.3273 158.937L44.8143 160.187L44.7211 160.122C44.7211 159.842 44.5159 159.628 44.1055 159.478C43.807 159.376 43.4805 159.32 43.1354 159.32C42.8836 159.32 42.6504 159.366 42.4452 159.469C42.1934 159.59 42.0628 159.767 42.0628 159.991C42.0628 160.252 42.3519 160.411 42.9302 160.467C43.7604 160.551 44.3013 160.635 44.5438 160.737C45.1221 160.989 45.4113 161.474 45.4113 162.192ZM49.6608 158.154H49.7634V159.739H49.6608C49.6141 159.534 49.5209 159.432 49.381 159.432H48.1125V163.33C48.1125 163.498 48.1964 163.62 48.355 163.685V163.815H46.844V163.685C47.0025 163.629 47.0865 163.508 47.0865 163.33V159.432H45.8273C45.678 159.432 45.5848 159.534 45.5381 159.739H45.4262V158.154H45.5381C45.5848 158.35 45.678 158.452 45.8273 158.452H49.381C49.5209 158.452 49.6141 158.35 49.6608 158.154ZM52.8557 161.726L52.1655 160.01L51.4939 161.726H52.8557ZM55.0103 163.685V163.815H53.2568V163.685C53.4154 163.657 53.4993 163.554 53.4993 163.396C53.4993 163.321 53.3874 163.013 53.1728 162.472H51.2048C50.9996 163.004 50.897 163.312 50.897 163.396C50.897 163.554 50.9716 163.648 51.1302 163.685V163.815H49.5632V163.685C49.6658 163.685 49.7498 163.638 49.815 163.536L49.9363 163.246L51.5126 159.292C51.5686 159.152 51.5965 159.021 51.5965 158.9C51.5965 158.769 51.5219 158.667 51.382 158.592V158.452H53.0516V158.592C52.9117 158.657 52.8371 158.769 52.8371 158.919C52.8371 159.012 52.8744 159.142 52.9397 159.301L54.5626 163.144C54.6372 163.321 54.6932 163.433 54.7212 163.48C54.7958 163.592 54.8891 163.657 55.0103 163.685ZM58.984 158.154H59.0866V159.739H58.984C58.9374 159.534 58.8441 159.432 58.7042 159.432H57.4357V163.33C57.4357 163.498 57.5196 163.62 57.6782 163.685V163.815H56.1672V163.685C56.3257 163.629 56.4097 163.508 56.4097 163.33V159.432H55.1505C55.0013 159.432 54.908 159.534 54.8614 159.739H54.7494V158.154H54.8614C54.908 158.35 55.0013 158.452 55.1505 158.452H58.7042C58.8441 158.452 58.9374 158.35 58.984 158.154ZM63.5221 162.538H63.6247V164.105H63.5221C63.4754 163.899 63.3821 163.815 63.2329 163.815H59.2409V163.685C59.3994 163.629 59.4834 163.508 59.4834 163.33V158.928C59.4834 158.76 59.3994 158.648 59.2409 158.592V158.452H63.1117C63.2609 158.452 63.3542 158.35 63.4008 158.154H63.5127V159.739H63.4008C63.3542 159.534 63.2609 159.432 63.1117 159.432H60.5187V160.598H62.1323C62.2722 160.598 62.3655 160.495 62.4214 160.29H62.524V161.847H62.4214C62.3655 161.642 62.2722 161.54 62.1323 161.54H60.5187V162.836H63.2329C63.3821 162.836 63.4754 162.733 63.5221 162.538ZM5.59735 171.542C5.59735 170.842 5.4761 170.329 5.24291 169.984C4.9631 169.564 4.49674 169.359 3.8345 169.359H2.38878V173.743H3.8345C5.00973 173.743 5.59735 173.006 5.59735 171.542ZM6.75393 171.542C6.75393 173.724 5.81188 174.815 3.91845 174.815H1.01768V174.666C1.17624 174.601 1.26019 174.48 1.26019 174.321V168.79C1.26019 168.613 1.17624 168.501 1.01768 168.445V168.286H3.91845C5.81188 168.286 6.75393 169.368 6.75393 171.542ZM10.5231 169.592V169.452H11.9408V169.592C11.7822 169.648 11.6983 169.769 11.6983 169.947V172.782C11.6983 174.34 11.092 174.909 9.53439 174.909C8.01405 174.909 7.37047 174.302 7.37047 172.782V169.947C7.37047 169.769 7.28653 169.648 7.11864 169.592V169.452H8.63897V169.592C8.47108 169.648 8.38714 169.769 8.38714 169.947V172.521C8.38714 172.997 8.47108 173.342 8.62032 173.547C8.80686 173.799 9.12399 173.92 9.58102 173.92C10.0381 173.92 10.3645 173.799 10.5417 173.547C10.691 173.342 10.7656 172.997 10.7656 172.521V169.947C10.7656 169.76 10.6816 169.639 10.5231 169.592ZM15.9709 173.137C15.9709 172.679 15.7191 172.446 15.2061 172.446H13.6111V173.836H15.2061C15.7191 173.836 15.9709 173.603 15.9709 173.137ZM15.831 170.945C15.831 170.73 15.7657 170.59 15.6444 170.516C15.5512 170.46 15.3926 170.432 15.1594 170.432H13.6111V171.467H15.1594C15.6071 171.467 15.831 171.29 15.831 170.945ZM17.0156 173.23C17.0156 174.237 16.4093 174.815 15.3926 174.815H12.3333V174.685C12.4918 174.629 12.5758 174.508 12.5758 174.33V169.947C12.5758 169.76 12.4918 169.639 12.3333 169.592V169.452H15.3367C16.372 169.452 16.885 169.909 16.885 170.833C16.885 171.28 16.6798 171.644 16.2787 171.933C16.829 172.269 17.0156 172.596 17.0156 173.23ZM20.311 172.726L19.6208 171.01L18.9492 172.726H20.311ZM22.4656 174.685V174.815H20.712V174.685C20.8706 174.657 20.9546 174.554 20.9546 174.396C20.9546 174.321 20.8426 174.013 20.6281 173.472H18.6601C18.4549 174.004 18.3523 174.312 18.3523 174.396C18.3523 174.554 18.4269 174.648 18.5854 174.685V174.815H17.0185V174.685C17.1211 174.685 17.205 174.638 17.2703 174.536L17.3916 174.246L18.9679 170.292C19.0238 170.152 19.0518 170.021 19.0518 169.9C19.0518 169.769 18.9772 169.667 18.8373 169.592V169.452H20.5069V169.592C20.3669 169.657 20.2923 169.769 20.2923 169.919C20.2923 170.012 20.3296 170.142 20.3949 170.301L22.0179 174.144C22.0925 174.321 22.1484 174.433 22.1764 174.48C22.251 174.592 22.3443 174.657 22.4656 174.685ZM24.0328 174.685V174.815H22.5218V174.685C22.6804 174.629 22.7643 174.508 22.7643 174.33V169.928C22.7643 169.76 22.6804 169.648 22.5218 169.592V169.452H24.0328V169.592C23.8743 169.648 23.7997 169.769 23.7997 169.947V174.33C23.7997 174.498 23.8743 174.62 24.0328 174.685ZM24.6033 176.354V176.009C24.9484 175.86 25.2096 175.702 25.3868 175.524C25.5734 175.347 25.6946 175.123 25.7412 174.853C25.592 174.89 25.4894 174.909 25.4055 174.909C25.2096 174.909 25.0417 174.843 24.9018 174.741C24.7619 174.62 24.6966 174.433 24.6966 174.191C24.6966 173.948 24.7619 173.752 24.9111 173.603C25.0417 173.463 25.2189 173.398 25.4241 173.398C25.7226 173.398 25.9464 173.519 26.0957 173.761C26.2356 173.976 26.3102 174.228 26.3102 174.508C26.3102 175.011 26.0677 175.468 25.5827 175.869C25.3122 176.084 24.9857 176.242 24.6033 176.354ZM34.2494 168.445V168.286H35.779V168.445C35.6205 168.501 35.5458 168.613 35.5458 168.79V172.446C35.5458 173.37 35.3406 174.013 34.9396 174.377C34.5385 174.741 33.8763 174.909 32.9529 174.909C32.0481 174.909 31.3952 174.741 30.9942 174.368C30.5744 173.985 30.3692 173.351 30.3692 172.446V168.79C30.3692 168.613 30.2853 168.501 30.1174 168.445V168.286H31.759V168.445C31.5911 168.501 31.5071 168.613 31.5071 168.79V172.036C31.5071 172.474 31.5445 172.819 31.6284 173.062C31.7497 173.426 31.9828 173.65 32.3186 173.743C32.5052 173.789 32.729 173.817 32.9995 173.817C33.2793 173.817 33.5125 173.789 33.699 173.743C34.2307 173.603 34.4919 173.053 34.4919 172.092V168.79C34.4919 168.613 34.4079 168.501 34.2494 168.445ZM39.0007 169.956H38.982L38.1333 172.25H39.8308L39.0007 169.956ZM42.2652 174.666V174.815H40.3532V174.666C40.5117 174.62 40.5957 174.526 40.5957 174.368C40.5957 174.302 40.5677 174.2 40.521 174.069L40.1759 173.146H37.7975L37.4431 174.069C37.3964 174.2 37.3684 174.302 37.3684 174.377C37.3684 174.508 37.4524 174.601 37.6296 174.666V174.815H35.8947V174.666C36.0533 174.62 36.2025 174.452 36.3145 174.153L38.2359 169.135C38.2918 168.986 38.3198 168.855 38.3198 168.753C38.3198 168.603 38.2452 168.501 38.1053 168.445V168.286H39.9521V168.445C39.8028 168.492 39.7282 168.576 39.7282 168.715C39.7282 168.799 39.7562 168.911 39.8028 169.033L41.7895 174.069C41.8642 174.246 41.9201 174.368 41.9574 174.433C42.0414 174.554 42.144 174.638 42.2652 174.666ZM47.494 173.435H47.6059V175.105H47.494C47.4381 174.899 47.3448 174.815 47.2142 174.815H42.4666V174.666C42.6252 174.601 42.7091 174.48 42.7091 174.321V168.79C42.7091 168.613 42.6252 168.501 42.4666 168.445V168.286H47.1209C47.2608 168.286 47.3448 168.184 47.3914 167.969H47.522V169.667H47.3914C47.3448 169.462 47.2608 169.359 47.1209 169.359H43.8377V170.907H45.9737C46.1136 170.907 46.1975 170.805 46.2442 170.609H46.3747V172.25H46.2442C46.1975 172.045 46.1136 171.943 45.9737 171.943H43.8377V173.743H47.2142C47.3448 173.743 47.4381 173.64 47.494 173.435Z" fill="#989595"/>
<path fill-rule="evenodd" clip-rule="evenodd" d="M30.3149 1.23368C30.044 1.93924 29.8226 6.61294 29.8226 11.6199V20.7241L26.5235 22.1798C23.0996 23.6898 21.1443 26.4958 21.9861 28.6887C22.7054 30.5629 24.591 30.2304 26.0734 27.9678C28.5234 24.2291 37.1361 24.5478 38.3655 28.4227C38.964 30.3074 41.6265 30.4453 42.3247 28.6263C43.0506 26.7334 40.7628 23.6322 37.4872 22.0703L34.6885 20.7362V11.9119C34.6885 7.05898 34.3106 2.38203 33.8491 1.51915C32.8338 -0.377744 30.9904 -0.526963 30.3149 1.23368ZM24.3485 31.5701C22.4856 32.7055 21.7128 33.7825 21.7128 35.2423C21.7128 38.2218 23.8278 38.6468 26.1562 36.1344C27.7822 34.3802 28.8397 34.012 32.2556 34.012C35.6714 34.012 36.729 34.3802 38.355 36.1344C39.5293 37.4011 40.8212 38.0653 41.56 37.7823C43.5728 37.0094 42.98 34.3096 40.303 32.0567C38.1628 30.2563 37.0379 29.9579 32.3959 29.9603C28.4326 29.962 26.2786 30.3934 24.3485 31.5701ZM24.5228 39.65C22.1969 40.5923 20.6366 42.6944 21.1913 44.1388C21.7833 45.6829 24.0727 45.6764 26.1253 44.1234C27.0758 43.4048 29.5055 42.9328 32.2556 42.9328C35.0056 42.9328 37.4353 43.4048 38.3858 44.1234C40.8796 46.0097 42.7984 45.6772 42.7984 43.3594C42.7984 40.3442 39.23 38.8674 32.0934 38.929C28.8373 38.9574 25.4303 39.2818 24.5228 39.65ZM21.7525 48.514C17.2224 50.1319 15.2249 51.9193 15.2249 54.3547C15.2249 56.6863 17.5119 56.8063 19.5734 54.5826C23.8546 49.9657 40.5803 50.1879 44.9661 54.9208C46.7559 56.8509 47.009 56.9118 48.2214 55.6985C49.4338 54.4861 49.4273 54.2169 48.1322 52.2397C46.0739 49.0987 41.7206 47.6187 33.472 47.2562C27.6978 47.0024 25.2495 47.2651 21.7525 48.514ZM20.6918 57.0675C16.5947 58.5297 15.2249 59.7883 15.2249 62.0899C15.2249 63.5829 15.6628 64.0184 17.1656 64.0184C18.2329 64.0184 19.3025 63.5067 19.5426 62.8814C20.0705 61.5068 26.7936 59.9635 32.2556 59.9635C37.7175 59.9635 44.4406 61.5068 44.9685 62.8814C45.5565 64.4142 48.4071 64.329 49.0089 62.7606C49.7436 60.8458 46.3545 57.8014 42.3726 56.799C37.5245 55.5785 24.4101 55.7407 20.6918 57.0675ZM23.531 64.8772C18.7186 65.8261 15.701 67.4148 15.3612 69.1795C14.8186 71.9969 16.5022 72.4397 20.4655 70.5217C23.7994 68.907 25.1943 68.7424 33.335 69.0011C40.4579 69.2273 42.9622 69.6166 44.7253 70.7715C47.1266 72.3448 49.2862 72.0982 49.2862 70.2516C49.2862 65.6825 34.7883 62.6576 23.531 64.8772ZM20.8191 73.8094C13.4708 74.5888 4.98381 77.2804 2.45192 79.6347C0.495832 81.4537 0.0262727 84.6369 1.57282 85.5922C2.12023 85.9312 3.22966 85.2832 4.21095 84.0529C7.74603 79.6193 19.6999 77.364 36.1191 78.033C49.446 78.5756 56.0733 80.1375 59.2337 83.4812C61.6521 86.0407 63.8839 85.9815 63.8839 83.3587C63.8839 79.1181 55.1115 75.2059 42.3929 73.7737C34.1979 72.8516 29.7748 72.8589 20.8191 73.8094ZM23.7402 83.2047C17.3197 83.7221 8.54971 85.2645 6.0162 86.3237C2.52897 87.781 0.439874 90.2489 0.765078 92.5302C1.10326 94.9104 3.55729 95.4797 4.23771 93.3355C5.49311 89.3803 18.2085 87.1509 36.085 87.7518C49.7679 88.2117 56.7262 89.6301 59.1478 92.4547C59.8882 93.3184 61.2571 94.0248 62.189 94.0248C64.4046 94.0248 64.493 90.7728 62.3301 88.815C57.8486 84.7593 38.8124 81.9914 23.7402 83.2047ZM13.6029 93.5763C4.58724 95.4789 0.627211 97.6191 0.627211 100.591C0.627211 102.959 1.96371 103.091 5.0122 101.022C8.61134 98.5793 15.3141 97.3101 27.7952 96.7084C37.4961 96.2412 52.2585 97.4147 56.4813 98.9905C57.6539 99.4276 59.2045 100.553 59.9279 101.492C61.4583 103.478 63.8839 102.98 63.8839 100.68C63.8839 98.34 60.4575 95.6768 55.6719 94.2957C49.5368 92.5245 20.9067 92.0355 13.6029 93.5763ZM17.2524 101.813C5.05842 103.474 0.627211 105.174 0.627211 108.19C0.627211 110.954 1.85504 111.385 4.46235 109.534C7.89362 107.098 17.4535 105.841 32.2556 105.878C46.6205 105.915 54.5819 106.996 58.8615 109.492C62.2798 111.484 63.8839 111.476 63.8839 109.465C63.8839 104.382 54.646 101.951 34.283 101.677C26.2543 101.569 18.5905 101.631 17.2524 101.813ZM19.2798 110.721C3.02123 112.656 0.627211 113.33 0.627211 115.976C0.627211 117.934 2.66521 118.881 4.17851 117.625C7.58058 114.801 41.4067 113.854 52.492 116.273C55.8171 116.998 59.1786 118.172 59.9636 118.881C61.7299 120.481 63.8839 119.769 63.8839 117.587C63.8839 113.499 54.3873 111.203 35.4995 110.724C28.1398 110.536 20.841 110.536 19.2798 110.721ZM5.8986 120.403C5.45256 120.536 4.0601 120.872 2.8047 121.151C1.02459 121.545 0.577741 122.051 0.777243 123.451C0.983233 124.9 1.50388 125.213 3.46565 125.068C4.80378 124.969 13.9273 124.665 23.7402 124.39C43.5493 123.837 56.9419 125.068 59.8582 127.707C61.7154 129.388 63.8839 128.741 63.8839 126.508C63.8839 121.872 52.4774 119.945 25.7677 120.07C15.2857 120.12 6.34465 120.269 5.8986 120.403ZM0.862396 130.265C-0.217023 133.078 1.90775 133.349 28.8486 133.847C49.0705 134.221 56.1496 134.619 58.6563 135.523C62.532 136.92 63.8839 136.646 63.8839 134.465C63.8839 131.309 59.1737 130.35 41.9874 130.008C33.2896 129.835 20.5798 129.558 13.7432 129.393C3.44619 129.144 1.23545 129.294 0.862396 130.265ZM1.64094 137.545C-0.411659 138.372 0.571253 140.919 3.26291 141.748C4.71295 142.195 17.0294 142.747 30.6336 142.975C46.1307 143.235 56.6751 143.754 58.8656 144.365C61.528 145.107 62.5888 145.114 63.3081 144.395C64.6495 143.054 63.1208 140.917 60.172 140.012C58.8688 139.612 45.9409 139.022 31.4446 138.702C16.9483 138.382 4.54021 137.898 3.87115 137.627C3.20208 137.357 2.1989 137.319 1.64094 137.545ZM0.627211 147.415C0.627211 150.614 3.34238 151.189 18.4688 151.194C32.1218 151.199 32.6611 151.138 32.6611 149.577C32.6611 148.044 31.9482 147.927 19.6853 147.438C12.5487 147.154 5.34146 146.65 3.6684 146.319C0.929708 145.775 0.627211 145.885 0.627211 147.415Z" fill="#989595"/>
</svg>
